<svg xmlns="http://www.w3.org/2000/svg" viewBox="0 0 1104.37 1844.42"><defs><style>.cls-1{fill:#f16867;}.cls-1,.cls-10,.cls-11,.cls-12,.cls-2,.cls-3,.cls-4,.cls-5,.cls-6,.cls-7,.cls-8,.cls-9{stroke:#fff;stroke-miterlimit:10;}.cls-1,.cls-10,.cls-11,.cls-12,.cls-2,.cls-4,.cls-5,.cls-6,.cls-7,.cls-8,.cls-9{opacity:0.75;}.cls-2{fill:#ee4c52;stroke-width:1.12px;}.cls-3,.cls-4{fill:#ed1c24;}.cls-3{opacity:0.72;}.cls-5{fill:#c42127;}.cls-6{fill:#261135;}.cls-7{fill:#511951;}.cls-8{fill:#2e1550;}.cls-9{fill:#4259a8;}.cls-10{fill:#2b3990;}.cls-11{fill:#442361;}.cls-12{fill:#27163f;}</style></defs><title>Berry Lines</title><g id="Layer_2" data-name="Layer 2"><g id="Berry_Lines" data-name="Berry Lines"><g id="Layer_3" data-name="Layer 3"><path class="cls-1" d="M2.9,0C.56,114.82,1105.9,278.57,1103.81,372,1101.74,465,.56,557,.56,619.32Z"/><path class="cls-2" d="M2.9,240.94C.56,385.22,1103.81,381.06,1103.81,522.57,1103.81,635.63.56,639.56.56,718Z"/><path class="cls-3" d="M2.9,255.81C.56,370.62,1103.81,471.45,1103.81,584.05,1103.81,674,.56,791.77.56,854.14Z"/><path class="cls-4" d="M2.9,592.88c0,55.75,1100.91,109.29,1100.91,221.89,0,90-1103.25,176.45-1103.25,238.82Z"/><path class="cls-5" d="M2.9,648.63C.56,763.44,1103.81,906.91,1103.81,1033,1103.81,1199.31.56,1326.08.56,1388.45Z"/><path class="cls-6" d="M2.9,791.22C.56,906,1103.81,1052.85,1103.81,1165.46c0,90-1103.25,273.22-1103.25,335.59Z"/><path class="cls-7" d="M2.9,844.21C.56,959,1103.81,1069.41,1103.81,1182c0,90-1103.25,219.14-1103.25,281.51Z"/><path class="cls-8" d="M2.9,881.74c-2.34,114.81,1100.91,205,1100.91,317.57,0,90-1103.25,148.85-1103.25,211.22Z"/><path class="cls-9" d="M2.9,919.28c-2.34,114.81,1100.91,205,1100.91,317.56,0,90-1103.25,148.85-1103.25,211.22Z"/><path class="cls-10" d="M2.9,1074.93C.56,1153,1103.81,1214.36,1103.81,1291,1103.81,1352.17.56,1392.22.56,1434.65Z"/><path class="cls-11" d="M2.9,1113.18c-2.34,78.1,1100.91,139.43,1100.91,216C1103.81,1390.42.56,1430.47.56,1472.9Z"/><path class="cls-10" d="M2.9,1229.32C.56,1318.48,1103.81,1388.5,1103.81,1476,1103.81,1545.82.56,1591.54.56,1640Z"/><path class="cls-12" d="M2.9,1275.85C.56,1399.3,1103.81,1496.23,1103.81,1617.31c0,96.74-1103.25,160-1103.25,227.11Z"/></g></g></g></svg>